<svg xmlns="http://www.w3.org/2000/svg" width="212.006" height="176.74" class="footer-iznanka" style="isolation:isolate" viewBox="0 0 212.006 176.74"><path d="M64.188 134.585v42.155H90.43q6.696-11.247 19.148-29.59 12.452-18.344 26.243-38.027 13.793-19.682 27.316-38.83 13.524-19.146 22.36-32h1.607q.268 1.875.268 4.017V148h24.637l-.535-34.994V52.754q0-13.12.135-27.582.134-14.46.4-25.172h-26.51q-4.284 8.3-16.335 26.243-12.05 17.942-26.51 38.83-14.46 20.887-28.922 41.373-14.46 20.485-23.297 33.607h-1.606l-.268.268q-.268-6.425-.268-13.39V99.906l-24.102 34.68z"/><path d="M147.754 43.24q.03-8.757.117-18.068.136-14.46.404-25.172h-26.51q-4.286 8.3-16.337 26.243-12.05 17.942-26.51 38.83-14.46 20.887-28.922 41.373-14.46 20.485-23.297 33.607H25.09l-.268.268q-.267-6.425-.267-13.39V52.756q0-13.12.134-24.754H0q.26 8.91.454 18.596V176.74h26.243q6.695-11.247 19.147-29.59 12.452-18.344 26.243-38.027Q85.877 89.44 99.4 70.293q13.525-19.146 22.362-32h1.606q.268 1.875.268 4.017v35.635l24.118-34.706z"/></svg>