<?xml version="1.0" encoding="utf-8"?>
<!-- Generator: Adobe Illustrator 21.0.2, SVG Export Plug-In . SVG Version: 6.00 Build 0)  -->
<svg version="1.2" baseProfile="tiny" id="Слой_1"
	 xmlns="http://www.w3.org/2000/svg" xmlns:xlink="http://www.w3.org/1999/xlink" x="0px" y="0px" viewBox="0 0 289 229"
	 xml:space="preserve">
<path fill="none" d="M157.8,73.7c-7.6,11.1-16.3,23.6-26.2,37.6c-0.8,1.1-1.5,2.2-2.3,3.3v31.9c0,2.3,0,4.6,0,6.9c0,2.3,0,4.6,0,6.9
	h1c7.6-11.3,16.9-24.7,27.7-40.2c0.8-1.2,1.7-2.4,2.5-3.5V73.7H157.8z"/>
<path d="M160.5,73.7v35.5l46.3-67.4c0-3,0.1-6,0.1-9c0.2-12.5,0.5-23.3,0.7-32.6h-49.9c-3.7,7.2-9.9,17.4-18.7,30.7
	c-3.1,4.7-6.3,9.5-9.6,14.4c-6.1,9.1-12.5,18.6-19.3,28.5c-8.8,12.9-17.8,25.9-26.9,38.9c-1.7,2.5-3.4,4.9-5.1,7.4
	c-10.9,15.5-20.1,28.9-27.7,40.2h-1c0-2.3,0-4.6,0-6.9c0-2.3,0-4.6,0-6.9v-3c0-11.3,0.1-57.2,0.3-69.7c0.2-12.5,0.5-23.3,0.7-32.6
	H0.4c0.7,7.9,1.3,16.9,1.7,27.2c0.5,10.3,0.8,55.3,1,67.1V229h48.9v-0.3c5.8-9.7,13.1-21.1,22-34.3c3-4.4,6-8.9,9.1-13.4
	c6.1-9,12.4-18.1,18.9-27.5c9-13,18.1-25.9,27.2-38.8c0.8-1.1,1.5-2.2,2.3-3.3c9.8-14,18.5-26.5,26.2-37.6H160.5z"/>
<g>
	<path d="M83.1,229.1v-40.8l46.3-67.5v39.4h0.8c7.7-11.4,17-24.9,27.7-40.1l2.5-3.5c10-14.3,19.9-28.6,29.6-42.7
		c5.7-8.3,11.3-16.6,16.6-24.5c4.3-6.5,8.5-12.7,12.3-18.5c8.7-13.2,15-23.5,18.7-30.7l0-0.1h50.1l0,0.1c-0.2,9.5-0.5,20.5-0.7,32.6
		c-0.2,12.3-0.3,24.3-0.3,35.7v9c0,17,0.2,63.9,0.7,77.9c0.5,14.1,1.2,26.8,2.1,37.6l0,0.1h-49.1V73.9h-2.6
		c-7.6,11-16.4,23.7-26.1,37.5l-5,7.1c-8.8,12.5-16.8,24-24.5,35c-7.4,10.7-14.7,21.2-21.6,31.4c-2.2,3.2-4.3,6.4-6.5,9.5
		c-8.9,13.1-16.3,24.7-22,34.3l0,0.3v0.1H83.1z"/>
	<path fill="#FFFFFF" d="M287.7,0.3c-0.2,9.2-0.5,20.1-0.7,32.6c-0.2,12.5-0.3,24.4-0.3,35.7v9c0,15.7,0.2,63.7,0.7,77.9
		c0.5,14.2,1.2,26.7,2.1,37.6h-48.9V73.7h-2.8c-7.6,11.1-16.3,23.6-26.2,37.6c-1.7,2.4-3.3,4.7-5,7.1c-8.2,11.6-16.3,23.3-24.5,35
		c-7.5,10.7-14.7,21.2-21.6,31.4c-2.2,3.2-4.3,6.4-6.5,9.5c-8.9,13.2-16.2,24.6-22,34.3v0.3H83.2v-40.6l46.1-67.1v25.2
		c0,2.3,0,4.6,0,6.9c0,2.3,0,4.6,0,6.9h1c7.6-11.3,16.9-24.7,27.7-40.2c0.8-1.2,1.7-2.4,2.5-3.5c10-14.3,19.9-28.5,29.6-42.7
		c5.8-8.5,11.3-16.6,16.6-24.5c4.3-6.4,8.4-12.5,12.3-18.5c8.8-13.3,15-23.5,18.7-30.7H287.7 M287.9,0h-0.3h-49.9h-0.2l-0.1,0.1
		c-3.7,7.1-10,17.4-18.7,30.6c-3.8,5.8-8,12-12.3,18.5c-5.3,7.9-10.9,16.2-16.6,24.5c-9.6,14-19.6,28.4-29.6,42.7l-1.1,1.5l-1.4,2
		c-10.7,15.2-20,28.7-27.7,40.1h-0.7v-6.7v-6.9v-25.2v-0.8l-0.5,0.7L83,188.2l0,0.1v0.1V229v0.3h0.3h48.9h0.3V229v-0.3
		c5.7-9.6,13.1-21.1,22-34.2c2.1-3.2,4.3-6.3,6.5-9.5c6.9-10.1,14.2-20.7,21.6-31.4c7.7-11.1,15.7-22.6,24.5-35l2.1-2.9
		c1-1.4,1.9-2.8,2.9-4.2c9.8-13.9,18.5-26.5,26.1-37.5h2.4v119v0.3h0.3h48.9h0.3l0-0.3c-0.9-10.8-1.6-23.5-2.1-37.6
		c-0.5-14-0.7-60.9-0.7-77.9v-9c0-11.4,0.1-23.4,0.3-35.7c0.2-12.1,0.5-23.1,0.7-32.6L287.9,0L287.9,0z"/>
</g>
</svg>
