<?xml version="1.0" encoding="utf-8"?>
<!-- Generator: Adobe Illustrator 21.0.2, SVG Export Plug-In . SVG Version: 6.00 Build 0)  -->
<svg version="1.1" baseProfile="tiny" id="Слой_1"
	 xmlns="http://www.w3.org/2000/svg" xmlns:xlink="http://www.w3.org/1999/xlink" x="0px" y="0px" viewBox="0 0 289 229"
	 xml:space="preserve">
<path fill="none" d="M157.8,73.7c-7.6,11.1-16.3,23.6-26.2,37.6c-0.8,1.1-1.5,2.2-2.3,3.3v31.9c0,2.3,0,4.6,0,6.9c0,2.3,0,4.6,0,6.9
	h1c7.6-11.3,16.9-24.7,27.7-40.2c0.8-1.2,1.7-2.4,2.5-3.5V73.7H157.8z"/>
<path d="M160.3,73.6v27.9L206,34.2l0.7,0.5c0-0.6,0-1.3,0-1.9c0.2-12.5,0.5-23.3,0.7-32.5h-49.8c-3.7,7.2-9.9,17.4-18.7,30.6
	c-3.1,4.7-6.3,9.5-9.6,14.4c-6.1,9.1-12.5,18.6-19.3,28.5c-8.8,12.9-17.8,25.9-26.9,38.9c-1.7,2.4-3.4,4.9-5.1,7.3
	c-10.8,15.5-20.1,28.8-27.7,40.1h-1c0-2.3,0-4.6,0-6.9c0-2.3,0-4.6,0-6.9v-3c0-11.3,0.1-57.1,0.3-69.6c0.2-12.5,0.5-23.3,0.7-32.5
	H0.4c0.7,7.8,1.3,16.9,1.7,27.2c0.5,10.3,0.8,55.2,1,67v93.3H52v-0.3c5.8-9.7,13.1-21.1,22-34.3c3-4.4,6-8.9,9.1-13.4
	c6.1-8.9,12.4-18.1,18.9-27.4c9-13,18.1-25.9,27.1-38.8c0.8-1.1,1.5-2.2,2.3-3.3c9.8-14,18.5-26.5,26.1-37.5H160.3z"/>
<path d="M289,192.7c-0.9-10.8-1.6-23.4-2.1-37.5c-0.5-14.2-0.7-62.1-0.7-77.8v-9c0-11.3,0.1-23.2,0.3-35.6
	c0.2-12.5,0.5-23.3,0.7-32.5h-49.8c-3.7,7.2-9.9,17.4-18.7,30.6c-3.9,5.9-8,12.1-12.3,18.4c-5.3,7.8-10.8,16-16.6,24.5
	c-9.7,14.2-19.5,28.4-29.5,42.7c-0.8,1.2-1.6,2.4-2.5,3.5c-10.8,15.5-20.1,28.8-27.7,40.1h-1c0-2.3,0-4.6,0-6.9c0-2.3,0-4.6,0-6.9
	v-18.9l-46,67.9v33.4h48.8v-0.3c5.8-9.7,13.1-21.1,22-34.3c2.1-3.1,4.3-6.3,6.5-9.5c6.9-10.2,14.1-20.6,21.6-31.3
	c8.1-11.7,16.3-23.3,24.5-35c1.7-2.4,3.3-4.7,5-7.1c9.8-14,18.5-26.5,26.1-37.5h2.8v119.1H289z"/>
</svg>
