<svg xmlns="http://www.w3.org/2000/svg" width="330.768" height="262.905" style="isolation:isolate" viewBox="0 0 330.768 262.905"><linearGradient id="a" x1="0%" y1="100%" y2="0%"><stop offset="0%" stop-color="#00FFBD"/><stop offset="100%" stop-color="#00EFB4"/></linearGradient><path fill="url(#a)" d="M276.593 219V84.448h-3.186q-13.146 19.12-30.075 43.22-16.93 24.1-33.86 48.4-16.93 24.298-32.265 47.003-15.336 22.71-25.294 39.44v.4H95.746V125.38c26.99-39.525 44.736-65.43 53.21-77.75-.153 10.667-.23 20.95-.23 30.847v105.56h1.195q13.15-19.52 31.87-46.208 18.72-26.69 36.85-53.18 18.124-26.49 33.26-49.396Q267.034 12.35 273.408 0h57.36q-.397 15.934-.796 37.444-.396 21.51-.396 41.03V168.1q0 26.402.797 50.9h-53.776z"/><linearGradient id="b" x1="3.263%" y1="73.97%" y2="0%"><stop offset="0%" stop-color="#00F2A4"/><stop offset="100%" stop-color="#00C788"/></linearGradient><path fill="url(#b)" d="M181.793 138.25V84.448h-3.187q-13.145 19.12-30.075 43.22-16.923 24.1-33.853 48.4-16.93 24.298-32.266 47.003-15.34 22.71-25.295 39.44v.4H.945V69.31Q.613 52.187 0 37h54.323v.444q-.398 21.51-.398 41.03v105.56h1.195q13.145-19.52 31.867-46.208 18.722-26.69 36.847-53.178 18.124-26.49 33.262-49.395Q172.232 12.35 178.606 0h57.36q-.397 15.934-.796 37.444-.224 12.093-.322 23.557c-2.198 3.49-19.873 29.25-53.055 77.25z"/></svg>